ply
format ascii 1.0
comment Simple cube point cloud with 8 vertices
element vertex 8
property float x
property float y
property float z
property uchar red
property uchar green
property uchar blue
end_header
-1.000000 -1.000000 -1.000000 255 0 0
1.000000 -1.000000 -1.000000 0 255 0
1.000000 1.000000 -1.000000 0 0 255
-1.000000 1.000000 -1.000000 255 255 0
-1.000000 -1.000000 1.000000 255 0 255
1.000000 -1.000000 1.000000 0 255 255
1.000000 1.000000 1.000000 128 128 128
-1.000000 1.000000 1.000000 255 255 255